<svg id="canvas" xmlns="http://www.w3.org/2000/svg" width="848" height="414" viewBox="-14 -14 848 414" data-ready="true"><g><path d="M0.13068856823224753 -0.0018755409522150047 L259.6078629317929 -0.3922739510815705 L260.0209905111154 48.08811586798926 L0.10656866863570756 48.29636763453188" stroke="none" stroke-width="0" fill="#e9ecef"></path></g><g><path d="M259.6827759580998 0.17442504715033744 L400.21627843694324 -0.027033001899550158 L399.8672008798876 48.24568656104247 L260.37280211535193 47.62948741215209" stroke="none" stroke-width="0" fill="#d0ebff"></path></g><g><path d="M399.60993804491187 -0.1987109251700792 L540.1771965519872 -0.07881460768203025 L539.9506846181733 47.840869401178516 L399.89002747534045 48.029263736906856" stroke="none" stroke-width="0" fill="#d3f9d8"></path></g><g><path d="M540.2212231646103 -0.2649283132936285 L679.650472282047 0.3450332725805379 L679.8575188562877 48.38261173602492 L539.6031210530201 48.12551819175447" stroke="none" stroke-width="0" fill="#ffe3e3"></path></g><g><path d="M680.3780463084632 0.02255550487627156 L820.050313562743 -0.059482230399977444 L819.6326427654542 48.06590130003692 L680.086966045457 48.25096743351263" stroke="none" stroke-width="0" fill="#e5dbff"></path></g><g><path d="M0.34114509527321096 90.30487486091516 L819.6709686105357 90.25281140347985 L820.2462616013761 132.02806481524036 L0.12390338351412788 131.78762826523607" stroke="none" stroke-width="0" fill="#f1f3f5"></path></g><g><path d="M0.39519158676864885 173.87682033391255 L820.1880849235474 174.38580621784405 L819.6281553444461 216.0456536773545 L-0.12540424586819307 215.9007729030147" stroke="none" stroke-width="0" fill="#f1f3f5"></path></g><g><path d="M0.08049148244866577 258.25247432324585 L819.9357764409535 257.6972326682725 L819.8081369872909 299.7211108216032 L0.042228040338774524 300.39143889639104" stroke="none" stroke-width="0" fill="#f1f3f5"></path></g><g><path d="M0 0 C0 0, 0 0, 0 0 M0 0 C0 0, 0 0, 0 0 M-0.35169280152513616 11.555636551931912 C3.477363488478687 7.235909381985776, 6.144080158241456 5.455819058546185, 11.060303134867913 -1.2114735162000587 M0.30777541431265354 12.10136091520726 C2.439294265244679 8.76453653850995, 6.562362497510095 5.184238692179226, 10.29017650008979 0.19457892312331815 M0.0505568925414856 25.265822889540242 C5.093763442738728 19.834628749204708, 10.753632195165716 12.304706163004191, 22.815557403759396 -1.5876497984391293 M0.4530290329692941 23.448118131724467 C3.865609705883897 19.120805166101125, 8.253539648920107 13.73909473835104, 21.920143545664345 0.30474269427852757 M-1.5226580418315745 36.531586069387295 C9.545449858423607 26.76034342392058, 18.70508573671469 14.910955755001405, 33.08998472527894 0.09648924912379864 M0.18428694714953836 37.29820713100242 C8.463974453041374 25.991273513654615, 18.383552749767745 14.95831130600758, 31.331652104934197 -0.365297876126593 M-0.3655194754112806 48.370865616280625 C15.17335245118229 31.68736479236481, 32.48333689642565 12.080437781705223, 41.61337071287849 1.2003264731721683 M-0.3812304315462356 49.06977220883974 C10.368559208471577 37.01734021622895, 22.008469648345564 23.696202561641236, 42.692483010229935 -0.5416970958099889 M-0.5631778221728461 61.82492964702359 C19.41415325360713 37.49560858834324, 38.08330506848098 17.380269137326152, 54.343248133170555 -0.6861896306280659 M-0.7900520212094106 61.18205983914467 C18.804068070384684 39.52305534091129, 36.742514751026164 18.222927159297374, 53.46121765445422 -0.8817872185780167 M-1.403806206238998 72.21734965781113 C23.37445921410243 47.39163556452509, 46.77111891974867 19.30810714974112, 63.408465961207284 -1.6071170792638236 M0.6745245124459606 73.19127393576619 C18.235619399678658 52.681967518920615, 35.82400587638217 32.21799419829685, 63.08904694567155 -0.46468246174502603 M-0.3828899887972782 84.60678567282314 C21.22434247623308 62.834819107619694, 40.91036184393671 39.10478742294552, 73.08455468198281 0.27233931812796186 M0.4854004307998899 85.07653952955576 C23.56695162960201 56.67030962440801, 48.36110516153845 28.248584580351846, 74.40785965612928 0.41679461674711293 M-0.6213971764116359 97.20257600429817 C24.26436566766055 66.72838076829842, 53.51304214280364 34.766512333670406, 85.82574363981925 -0.32994624443315673 M-0.8347443776322688 98.4265062171732 C29.713621659457857 61.30104388726966, 60.94482910189058 25.985145472438088, 85.41940148094288 0.2336833221990906 M1.0505580821470735 110.31885372344223 C39.32056194495908 65.73294801328902, 75.94196797144136 23.28081463086578, 95.01807190035608 0.06417560669032235 M-0.08345050846080113 109.66545172485175 C24.894145596184117 80.10097310492678, 50.88761491566051 50.45250134101138, 96.23903129747653 -0.06256930307332789 M1.0379479682611759 121.9352428387052 C28.90248517551519 87.57446386505495, 60.43763586201366 51.23956653495931, 107.38431993353717 -0.6524994473894115 M0.3024736215693073 121.1840339346461 C25.9020471083245 90.67329644439074, 52.87585875074289 59.315597189413666, 106.55278952104587 -0.8178357134913252 M1.7448914530669475 132.58721412389255 C38.462485194350045 88.03246996210045, 76.54812937115696 44.54108497725123, 116.16844437242581 0.4230525656824959 M-0.5927009135694995 134.66474686583803 C41.84265068858199 86.48266162619788, 83.32947005698745 39.140633597211156, 115.74143179530604 0.32038433407679356 M-1.0778959589163983 145.13918377761655 C29.155760673427967 113.51214606104375, 56.82551702226136 81.19045864345844, 127.81179944974154 -0.7484730223753258 M0.07696116473128958 146.32418650662626 C40.75672495343313 98.97167021370487, 83.67027971069277 50.58058294276898, 126.9599423707755 0.9627811210859436 M-0.933271770193018 158.4147028832251 C34.86528369199387 116.87053937659205, 70.75701625162563 75.83168258006317, 136.4051555399335 0.38435331942820494 M-0.8065110714238641 158.74912782342653 C31.119847205462943 122.90307009589127, 63.40140161304507 85.04203846675507, 137.04275277873646 -0.38055206064745517 M-0.06847318279312739 171.0353299555647 C44.92971549173676 118.72484112983209, 89.83117720290261 68.63546847714203, 149.36339236955575 -0.12495399516359451 M0.051192343289217346 170.33429123817453 C54.361259644938016 108.18978113197134, 109.80072957110988 43.83759734888617, 148.04399220922116 -0.22009507384163235 M-1.051918778732475 183.76105706746597 C61.41150248860962 113.2275458000131, 122.40778185259983 42.45757399034878, 158.21149417434793 1.4045797427409337 M-0.4516185793989366 183.5119204862963 C52.70768039104096 122.35827503074724, 106.1813728672245 61.19462277176365, 159.18483951428192 0.6084181395350163 M0.9397663485092481 194.5560213442657 C50.06886785276737 135.75196670251302, 100.05050955655466 79.02216657347627, 168.69616196210688 -1.0339845374026093 M-0.11151985788483726 194.67353004149612 C58.99761612664258 127.52932510730938, 118.0328831932723 59.4780426981623, 168.88265249189396 0.615805481072391 M0.6582879269997302 206.34892391004306 C54.745923300445625 145.49108018931972, 109.50189216085472 80.42785779301701, 179.61248812523976 -0.6841402888850122 M-0.024879245890587876 207.02715883708638 C49.156134559328585 150.84099776060958, 98.41523709249037 94.3121636500895, 179.7015171511939 0.539510642796047 M0.7745429593319484 220.40143012289758 C47.03952028174662 167.02084939747292, 92.32268686150506 114.63124174002967, 189.49971126033202 0.21862269633556378 M-0.08915164541255818 219.9038369985115 C56.99007823273768 154.06663526048007, 114.01765916571941 89.55578971940521, 190.97857226485118 0.09999343385544343 M0.748204255789906 231.84121069453155 C76.093263979485 143.07140383981337, 152.75268137127205 54.218622158939134, 200.58684718457394 0.2845408864724801 M0.408041214427622 232.27402040718752 C77.99131421428118 141.98991423829696, 155.29441652515797 53.359955477148, 201.42490361194274 0.6677066872954259 M0.23671514834460142 244.3222045614138 C57.73907197915545 175.5206495616266, 114.84732476476592 108.98899729247066, 212.43846471467955 -0.9988650485575306 M0.07234907232503186 244.35895547394034 C74.28347272720207 160.5000163060218, 146.7671116734242 77.1508657543459, 212.46547670348497 0.35161855136531234 M0.788692671185197 255.21965634243446 C75.36446088217892 172.9148710917902, 147.96952003623792 87.61964006118734, 222.13949270013552 0.2996888787268982 M-0.04648048992801776 255.7745357742029 C73.32896737701418 174.22746172757795, 146.5623968545062 90.43378061610679, 223.04449669937472 -0.045893133983160445 M1.3071573522662294 268.23425118469873 C71.0920690831671 183.9043533465697, 142.21821878993936 101.5741365456471, 232.96036886170725 0.30527663647301184 M0.38999744216059673 268.17808953856706 C61.48254735353181 196.77436177996378, 122.59430895903306 126.60485547480494, 233.3583870852831 -0.3332870486451169 M-1.1967692409749182 281.4038482146262 C49.13421094511182 223.48889881519094, 97.72408036253027 167.03283406798303, 244.24648227327756 -0.087886507608916 M0.0917753433002656 280.61253650437374 C51.41449577696366 221.51713454888008, 103.17139150170077 162.17018980063315, 243.95907978285658 0.05756811488274097 M-0.7761218062856278 292.6806103224662 C74.74801197510635 207.58125712095372, 148.0083197117453 124.13253152559417, 254.09135627147617 0.5995199434124986 M-0.12466282354854066 293.13633578663854 C86.95010827900336 192.79040357233796, 173.8418290135773 92.17599803919973, 254.07740874199104 0.07238787809206526 M0.6215269425546118 305.44215378236834 C92.45530990895398 199.02903740301, 186.1331791100306 93.06053877074159, 265.1008072688466 0.75573941345342 M0.3781325533851402 305.2186655994749 C69.39244504458195 224.32468454052184, 139.3281627719403 144.05022281687613, 265.07044948453114 -0.4885911079338304 M-0.4239516035289691 316.5072232610053 C101.74849582739452 200.6287612332541, 201.95009770437898 84.46794342352626, 276.2466671385374 -0.03877886249498663 M-0.18556335823972325 317.1743536433469 C73.2531718476622 232.04641328913306, 145.94859710021953 148.18293807853306, 276.0208502910425 -0.31154957009837003 M0.8570018854007594 328.41895242175815 C86.51806075022834 229.059479644546, 170.72124117362787 130.7676204490218, 286.4079336674846 0.23862829724501977 M0.0402960403178626 329.1113519853095 C62.87035273482187 256.73062758340967, 126.22305126378491 184.44284160672052, 286.02519306204937 -0.4841838604091625 M0.11090366548325647 341.4081099879073 C107.45255577678401 217.00940997367545, 215.74540758773736 91.62139686861215, 297.164484512221 -0.10808961136037261 M0.003541015658280161 341.45731532492056 C81.41764574951077 247.3855006508595, 165.22419228582692 151.00228143396598, 296.6624001851704 -0.44770782255657227 M10.457865110307239 342.42103198781615 C113.58929716614905 223.55975652246264, 216.75948309011568 104.28280098579957, 308.2336623066001 -0.27214613315699576 M9.820449336599257 342.6259337439359 C107.71553818937201 230.598276501794, 205.41182651302265 118.17148976135759, 307.4303803264925 -0.5570316873159258 M19.959258844756075 342.04322170501354 C115.5932616616765 233.0071951983272, 210.11282797640655 124.13128900184998, 318.98992412483614 0.38467768759565746 M20.098906896064616 342.395714681097 C131.6609850971832 214.57167071677637, 243.7271589698493 85.39446478240602, 318.17671592049766 -0.40440225293067916 M30.395326300545825 342.9885420157825 C113.72393791186646 247.72280692986163, 197.2673783900675 151.2300245946342, 328.17842724062416 -0.4673613605569473 M30.829255862011596 342.28156570865474 C141.677404768063 214.4279320888027, 252.27653987201776 86.94886885293357, 328.6830190910494 -0.6484659086128353 M40.89786574153458 342.0184935613394 C126.86089345658608 242.5248214742245, 212.85815685801617 144.57911932703527, 338.97437622622766 -0.6849887843874427 M41.59021947719341 342.0680205542615 C149.10441600945222 220.09092322276487, 256.24331721658575 97.00234698658106, 339.5107047122921 -0.3371046131738826 M52.88586608424631 343.0059579221662 C143.1010715718532 237.1549518538785, 235.56181275327916 130.92769240177245, 348.84150926190955 -0.18324436262988508 M51.91702134219145 342.0702251082854 C131.49030387050806 253.65626168317132, 209.3739132909779 163.98489523660882, 349.7368164704218 0.6961065775548559 M62.41370029739541 342.95303342241033 C159.8460438075877 231.93665126700023, 257.2864691246819 120.89053651412402, 359.46805145991175 -0.37470442462367026 M62.73750757031213 342.1723827270502 C142.76773791678627 250.24725801333966, 222.95153915414787 158.42301805834364, 359.7920063317643 0.6742044080349356 M73.67940542728473 342.658599028248 C161.33910937177507 240.8651792570613, 248.86217650959466 139.3583744907046, 371.0763837471473 -0.3329363962748739 M73.26813339613817 341.9340020807657 C164.16873944269386 239.28164776273522, 254.4303663594142 135.75610789794845, 370.89613503013095 0.24664458612642523 M84.07879731361604 341.96574318010124 C192.6572301552598 217.77646827125545, 299.96902136195666 92.88660938299404, 381.59741527558515 0.3493995314420061 M84.40743471192482 342.26585646322263 C170.17646004436156 242.34262728754905, 256.3375400868733 142.89656568783616, 381.51627557744865 0.44597436371277455 M94.54542034619347 341.6272023080232 C201.96386433371578 217.9627485224159, 308.88120849536693 93.3989987166379, 391.5145927226957 0.0892727431033328 M94.94131360099362 342.39118101288824 C156.66899481023214 272.9996365534128, 216.74961061976296 203.45863070471677, 392.2438901186409 0.15451775001246126 M106.18011172806908 342.666665212335 C189.3572256825158 246.43052440798445, 273.01867255055555 150.29461155724434, 402.65080196779724 0.5456430486285728 M105.38707378510742 342.1863726706294 C188.04185917529193 248.23812857466768, 268.3944973653716 155.4934204172004, 402.67872121939695 0.17050264930951198 M116.05222455317042 341.6926835634243 C191.86078071092376 254.9936413723981, 268.21704097602327 167.85237792526465, 412.9399095287763 -0.5371783837185563 M116.09902266574647 342.1017655541525 C226.03368218011474 216.86669572421442, 335.7034311911058 91.01493921100881, 413.34711038470493 -0.025475840936686256 M126.02304166556378 342.4949324925544 C215.6753445664646 238.57183807380272, 305.8127120454507 134.9653296611294, 424.28341913075445 -0.42769291822175737 M126.29503689486518 342.4817522365944 C230.40994571554464 224.68878545626424, 334.18385616619076 105.46801085857619, 423.85528348608 0.2791414012782807 M136.1723840985894 342.1756960740972 C230.59605368811876 236.32988873289509, 324.16664791059793 128.82871510244098, 433.8509179159282 -0.2456582031396639 M136.6048202223185 342.82050288949716 C246.3686026824445 214.93403013192957, 356.95761105357604 87.28033697785443, 434.21514122165996 0.4348698793002713 M147.74514969787862 342.1825000981525 C247.1549685413778 227.63426365299568, 347.8025965078557 110.81967829550425, 445.17335836393113 -0.6542012648632755 M147.4723451546765 342.93762064259806 C229.8458854336037 249.22484684413246, 310.34514262025294 155.50997944245736, 445.1642854028775 -0.2721277165931448 M158.46310185061404 342.4726409488998 C227.65507928353145 261.55618119789244, 298.9709019904337 180.648718922709, 456.11820537440366 0.3995037282344975 M157.86758816553976 342.5739096071372 C231.06688954277277 255.63865788394122, 305.8569439167777 169.94796904134884, 456.00555607441686 0.27923824115485457 M168.8763273401073 342.2055406101301 C244.13239124655533 255.4101459220643, 319.5040156429055 168.14701943183232, 465.9750576757645 -0.4963014795531181 M168.69958876628462 342.46738827362367 C241.05063737682872 260.43723783024757, 312.7817366480899 178.44343441288825, 466.61731332476694 0.318496583553061 M178.99326198111655 342.2257687580519 C287.70459631704693 218.51407560610298, 394.30877043481553 94.67659307430092, 477.5282088571093 -0.5586975993665838 M179.50648449501432 342.47073947915874 C276.74161937341705 229.03077781642668, 375.9725651341171 115.58423060919539, 476.8214617048923 0.28390744930310724 M190.27777494197196 343.06051216589555 C291.0839414345387 227.62048529835366, 390.06966724336434 113.39752664565079, 488.40955240833046 0.5914716630572694 M189.69392813071238 342.21053546017 C278.3815523092038 239.3123524426459, 367.87626833048995 136.18852048517886, 487.666447979616 0.015312148041339554 M199.97815830766572 342.358665572737 C311.50989817569814 214.52464086742478, 421.2342131214404 87.97752127885529, 498.60757650430605 0.22057271885018892 M200.13848740788072 342.5066835382709 C264.3930446941145 269.8295356627434, 327.2439953162158 197.28123955512737, 498.39324494061884 0.04049679474460971 M211.06739239429578 342.12363464024116 C288.28323051390174 255.19905798040503, 365.4368612327668 166.22507882371445, 508.6051981905555 -0.8037627574110162 M210.89638624413143 342.7604669330524 C282.21760277600885 260.50677040840014, 352.41332649676826 179.04628181724433, 509.14145446581796 -0.04096699434200378 M221.72683617738784 342.10540288178726 C336.4870470637348 210.0775868691585, 451.12939572689544 76.56727157219777, 519.5161606026461 0.26274429898539275 M221.98809416238115 342.22105216556514 C318.94778023956235 232.50337507391424, 414.80814832017194 122.16457423397718, 519.8218728478054 -0.20864884525618504 M232.14096059379472 343.17231447121316 C323.4936254256475 239.59583963411188, 413.98555985517567 135.45464384968653, 529.9720699796836 -0.05490714557441537 M232.5722243423276 342.3704515545475 C329.40759561741186 232.02501788985487, 427.1198782062198 120.22092511055587, 530.0418170291053 -0.3844388228317556 M243.42093588696628 342.14764987196116 C339.53627579049896 231.1840341814133, 435.64184113994224 120.59762275345066, 540.3874321599704 -0.23896089060662212 M243.26517933171087 342.5391956892138 C321.41884415775485 252.09923184958907, 400.02413378224264 161.88030473134523, 541.0078015983654 -0.4713280916912664 M252.90543425885073 342.1940173337261 C367.2916291069387 211.39508637351497, 479.137858175366 81.44086634221304, 551.0959214846545 -0.4752781056644181 M253.5284792693439 342.5156331489932 C317.90003059068744 269.8572794265284, 382.00448236800725 196.2609690851959, 551.1706095767179 -0.1922288511937817 M264.38379417023975 341.93246952987397 C348.937868956307 244.34833208828945, 434.4505243839483 145.2431250357985, 562.1814967475282 -0.9278255893039608 M264.5015952854378 342.1211736485319 C367.21173017590786 222.91793933413746, 469.9491498267966 104.87367983615486, 562.1404496060874 -0.44331113115376447 M274.1077047548641 342.5719716608601 C346.93269163123233 260.1944333635246, 416.0541266637969 178.90128594089182, 572.136840808194 -0.10913582894371013 M274.4895682099654 342.4217752305593 C364.7570638224412 237.98276319346382, 455.5363967128346 134.08776424716524, 573.0190100530607 -0.6314387697349869 M284.88939159338935 341.7342376551722 C346.92152448132407 272.1686077371632, 406.7117880381539 201.5033794411576, 582.5535187586016 0.6496334003185611 M285.2037520766376 341.94958565700824 C381.7310898792562 233.60949528879422, 475.97460212847227 124.76019657579941, 582.3318183900845 0.7430219003887867 M296.88444311532714 342.75231416817275 C371.0500015716501 255.83145815488876, 445.3338760440221 169.79552292315827, 592.8040340126109 0.3498485083402171 M295.8943402639339 342.20582001770725 C356.6430637118018 270.47997709011827, 418.4528794407929 200.22502026867406, 593.1946881833346 0.2398479779093888 M306.4870027346633 341.5949634422933 C410.4943931438868 223.9393353681499, 513.7502634699892 103.80019802772125, 603.9986420504007 1.0460072219887682 M306.8045079946182 342.49247931294275 C373.29685389505914 263.60691735651403, 441.2468940539713 185.3971846741331, 603.9453471352562 -0.01320989209410156 M317.17468424357736 342.0670572206851 C396.27166497968756 252.56462233257986, 474.76731768395354 161.6704104906391, 614.2396810181372 0.28484555428786634 M317.3707892114436 342.06628283294606 C417.72100917425007 227.90901505451478, 516.8478822052092 113.13881929912606, 614.6059577783044 0.12030919106129262 M328.5500541467252 342.09577268405053 C425.46236044409284 228.80927641076826, 523.2900510458956 117.25061324226729, 625.1469796454799 0.560794474541899 M328.23636583490094 341.75117887315906 C397.730756844928 264.2083006347275, 466.7773897408018 185.14537763093682, 624.8779688652558 -0.08213471302148317 M338.4533710236493 341.8272345059281 C455.0115325996306 207.69068129304975, 571.3408903368719 72.67335722136202, 636.177951590448 0.08925287469650195 M338.8827952580884 342.20803448030614 C456.2518390196615 206.77854439601512, 573.7972079821752 71.52282711424367, 635.703263644487 -0.02323696092571728 M348.6693326111832 341.28297063923213 C430.04564208913183 248.36018220434866, 512.5348074240998 152.99766548981822, 646.2175991468903 -0.5600215487053449 M349.50687993306224 341.9738025716755 C440.45569150907767 236.42761691759773, 531.876558575224 130.5752929057192, 646.3544240150834 0.10675184841996092 M359.08082740004863 342.7104072826707 C476.9438753579399 205.6385773296045, 596.5247378189545 69.02117756507066, 657.1422589127205 0.044797872552894163 M359.61249890033133 342.87573594951675 C439.790008407455 250.03688130342505, 520.0047500817983 157.70906387049993, 656.950577884345 -0.026180017628586738 M370.04316771194834 342.4731103622111 C463.45070911860125 233.49784578757072, 557.6073128014664 124.82316849870477, 667.2083285565886 0.19678137828243902 M369.6427337249461 342.901388442217 C475.77069568938936 221.05682267155663, 580.5506395484513 100.30239492320226, 667.683214198909 0.4488838317186204 M379.82161087414516 342.0312724685905 C450.88448231436894 261.7695819786809, 521.4380869429208 182.17680831102808, 678.8625016922 0.2546139401119879 M380.70360871059484 342.659525172635 C452.82534763461064 259.3040867931145, 525.8600227491862 174.4673706173813, 678.005697100676 -0.12701322546028815 M391.87219588895897 342.08326952823876 C478.480302821686 242.0929683495963, 563.8809794690427 143.07197656268676, 689.7420031659169 0.015751720977417276 M391.10248554799614 342.6475386286565 C484.2010104256633 234.39389354285856, 577.2851874904117 128.10508993949122, 689.168397594141 -0.17363584594679213 M402.066574096583 342.0151697786755 C515.1937297128437 211.23430355014486, 628.326008019896 81.57255572014093, 699.8421661646913 -0.05117457381360203 M401.6888875450867 342.84988999549313 C498.1057585733448 231.26902761027154, 594.3402029591119 120.27529057941177, 699.7713533393145 0.2606154968717859 M412.3472936363392 341.93943952787833 C485.7298598385698 259.5348118300337, 559.2755215375258 174.93154298696342, 710.0160311491576 0.10679434222580958 M412.14531776052286 342.68572071550454 C490.60858544379926 251.6821501313891, 568.8989369081361 161.88967694322915, 710.3738288005935 -0.025671038023639434 M422.5377109210069 341.85033752719295 C516.7643848982397 232.77627185575045, 611.9332596005851 124.90268732246946, 721.1717909914779 -0.23761375468677337 M422.94901550736625 342.80011774867523 C503.9721034546854 247.8884943545175, 586.0625927443244 153.5556412906619, 720.5467494454446 0.06952175877842581 M434.0912609443937 342.5057325686604 C497.2419350381235 270.4845188433127, 559.9719239055377 198.86968940059734, 731.5018529766176 0.32910667807976945 M433.5635733912722 342.5370652750332 C513.6242918724488 249.2052123974593, 594.3797310781777 156.26866906322334, 731.3690778266547 0.25761003618296757 M445.0299776621906 342.1150999752137 C520.4472001412412 254.10020298098902, 597.2647038482982 166.63067625105353, 741.7238753178806 -0.34419043948251166 M444.3615493616153 342.4615386014386 C542.5946377981226 228.60137779834923, 641.040950076942 115.61215686715565, 742.171840184051 -0.4583837052825636 M455.5795154084799 341.8934770804162 C519.2957410199532 268.31669393010645, 583.4680608265078 195.34409801339277, 753.5237546527011 0.11979672230476718 M454.60108796205157 342.6911484527033 C555.4935831937955 226.62993863548093, 655.6087451847773 112.02531091126004, 753.0593678736379 -0.125118205606985 M465.5220182149389 342.7285282239842 C531.8352207014328 263.84715112376443, 599.1278876330538 188.16587795234082, 763.492560848608 -0.9484221370470306 M465.50792897245174 342.3624345938588 C552.9216654806067 242.39611327214016, 640.65168847265 142.10497257831656, 763.3753922217447 0.13805254084107965 M476.00219786300505 342.59035047436583 C559.1118059202973 247.3663021734111, 642.682212874304 151.95923395587636, 774.4077547354184 0.18181697414894848 M475.92886227276045 342.2014497493682 C538.8047335062539 270.37573762570395, 601.2037166137098 198.47490607711322, 773.9044529560065 -0.36192339174433347 M486.6311713290486 342.1075141815131 C558.6597894041686 259.03123910904105, 630.7553567876408 176.3431219458098, 784.3530965083488 0.25144958278453056 M486.7120919169095 342.435932244202 C602.4203695060636 208.82410341877605, 719.0048469043035 74.42611295782915, 785.0325169484704 -0.46811910523431055 M497.3903250164223 343.03561536533556 C577.9851971841734 249.91332267587504, 657.3467054060329 159.21677939887314, 794.8483840905471 -0.011662978744929053 M497.254346582936 342.55455715249883 C560.6550765443336 268.024946620616, 624.5068266031493 193.7630647969481, 794.989892654184 0.020041060750075668 M507.39064766463093 342.2939642512179 C606.681971451912 227.07626244700737, 707.6809000873068 111.12796980674942, 805.4146166846728 -0.34458026290152316 M507.95868878215265 342.2437344561362 C608.7309043611915 224.56070309495738, 710.2889143970402 107.66854833961779, 805.9495972040835 -0.22891216703188993 M519.1887496104416 342.16029979427725 C587.4983394838342 263.0028737923584, 657.2099680643726 182.79142420932243, 816.541380305314 -0.019256817304515006 M518.6370506001608 342.57628786248813 C610.8737842122682 235.4831280513657, 704.3459014940487 127.7172083163357, 815.6529732404371 0.24806640513055736 M529.5287385652609 342.44335872744153 C627.4815636774653 229.70209331914745, 723.8942228714536 117.79367617983912, 820.4306269496147 8.614856922236939 M529.5004996594101 342.5459045129239 C630.6713414420503 225.99291661263965, 732.0623767194678 108.67309054630482, 820.1824628474965 7.914743222653947 M539.2249874652765 341.56484870161245 C609.5467344305928 262.08237405951456, 679.5099993122186 181.2920974347549, 819.3096458173372 20.427397030013367 M539.9158570413304 342.5210048890976 C652.6362783574842 214.72859479003205, 763.1514279107118 86.82432724447726, 820.3075887441936 19.972431566759138 M549.9415536288936 343.0162554467284 C637.446096463061 240.62979889878812, 726.3451488131046 138.95558881016393, 820.7113087349848 31.257136172541088 M550.7608847178084 341.87830848024566 C646.9488803362726 233.00357687507557, 741.7619082814684 122.85300290253343, 819.8998830321358 32.29708445787431 M561.7451913119233 342.8892635798627 C613.7016665929164 280.7537313042839, 668.8060492621595 218.10484705310904, 819.8585866125873 44.22100988389821 M561.2015621509055 341.9686986629444 C631.8915795098314 259.17901501710617, 702.996690551078 177.60326588987618, 820.6342565725871 43.848870690881824 M572.3486062464976 343.0217201987905 C638.1560029866738 267.2912025124166, 702.5412694001908 191.37182023770492, 819.9082157401092 57.202060448596455 M571.6034157813968 341.8082032222098 C652.3221613305044 250.7154449076116, 731.8357916919751 158.66875438056394, 820.060960179606 56.39378734923678 M582.2676800299654 342.6168907895784 C633.3852472051203 282.9258468784315, 684.5152485668539 223.69897185030396, 819.3518557403115 68.5092909189448 M582.4460161515817 341.9979734227891 C656.0053078016684 255.51217871996408, 731.4960039077315 170.322896426699, 820.0794633370465 69.30832592540845 M591.6593912515076 342.5239226782188 C643.63625748208 283.7207960265377, 695.1412378112486 224.44467301377, 820.6911139970815 80.49734783012273 M592.7072325713323 343.10699589501945 C637.8651629537084 288.15733937471015, 685.7809539160448 234.35513140118363, 819.6689399567802 81.25698594728136 M602.8616411338026 342.6581475339289 C686.143661941029 247.60053567720732, 770.8089678965283 151.40134636365516, 819.4708026590764 92.11940621902905 M602.9021884796631 343.0413871012366 C686.9747400670856 245.0722145346376, 770.9327819317567 149.2411663536374, 820.7814844272992 93.07171848943736 M613.4760044543696 343.44326286511534 C672.5088044249253 278.7878691743442, 729.0489556033114 212.29853703448097, 821.1840880621304 105.03920809301162 M613.9344774351787 343.23155745787165 C683.0304777555255 263.5921474028207, 751.596003621847 184.4539897237202, 819.9883220422461 104.394763445094 M625.1673339522566 343.4841013997606 C674.9348681924973 284.53800080365147, 725.9181110764347 228.25170045598213, 820.5178615745151 118.87370181149632 M624.1795159763003 342.1429208405563 C673.4838620261391 286.95598498623, 722.772884531753 230.5142241000856, 820.244968345252 117.27479908031464 M634.3720694775709 342.1845464489538 C692.1780023374374 276.0737116143336, 749.753589955232 211.86304044731833, 819.7202785267114 130.27709586366706 M635.3389511482086 342.6685290480259 C679.8843346384853 289.81427911924106, 726.053376354282 236.71393407918464, 819.705320920203 130.28689280475518 M646.2454953627242 343.30447322545945 C714.6797752366876 264.3346924078321, 782.3055514660062 186.13398624881052, 820.2413834391982 141.01499229004358 M645.9480360905294 342.4233465623063 C712.5457763118352 266.0292703859065, 779.0048592783388 189.67193557610548, 819.8387780121332 142.31431662809646 M656.887035965903 341.6838004459612 C718.6041939638625 271.43128555039084, 782.024770539581 199.342802473393, 820.3772979448784 153.509190216836 M655.7879291369549 343.0711536925844 C707.1818142648008 284.5367682632145, 757.4647199895588 225.0520234475292, 820.8505201217649 153.22209596951512 M668.0681863136363 342.6275799328814 C722.6448852224825 279.98160788149477, 779.9401234862544 215.29952429854976, 819.7651074093715 167.0548556284894 M667.0839528151907 342.93155622622635 C710.6187511732877 293.5169721164944, 752.9731975615321 243.35713162806297, 819.8059588873334 165.61871329910082 M678.1781083526349 342.3805649389253 C733.5377279602733 277.9424461016808, 788.9152515460017 212.9805416327026, 821.0130695944295 178.33293177824186 M677.941280509936 342.49790097176583 C733.4433204572848 276.06437078332823, 791.279764328066 211.0885072849154, 819.71272487048 178.8687231984425 M687.8712448815659 342.3964714680096 C733.1170291254691 292.2159880436586, 777.0098363181414 241.62220695168165, 820.8305344046088 191.4755863248547 M687.413372204225 342.3358927372807 C721.3797850786711 303.6269360852267, 755.0303334695643 265.3607698468815, 819.5874301812528 191.1778004288541 M697.9057025366927 340.9890440393381 C725.5513190462459 310.16716770416133, 754.6742737754971 276.62435815333924, 818.6156764206931 202.81589429481258 M697.965309557038 342.9000724196693 C743.9360334246489 289.3452617585993, 790.357393169525 235.3781486309925, 819.3770768803971 202.71936658422845 M710.6737916786453 342.22149728016717 C751.2702024855658 293.76145009268845, 793.4328738391824 244.12504684101464, 818.941877140776 214.3408142230861 M708.8844208926339 341.6215165191979 C741.2933419675074 305.22565099736, 773.1883806706451 269.08509440016525, 820.2259000928442 214.85953772156086 M721.2875159317115 341.0135582559161 C751.3043249183289 307.91873236760915, 780.0827077676913 273.19189031864795, 818.8045009345874 225.40367181272873 M719.7887704011114 342.42704881759335 C742.9166524252832 314.9163058560543, 765.4836873073148 287.0938306415696, 819.601687687926 227.1140537439647 M730.3737945166883 343.27185736585665 C764.6716859749512 302.8993656914888, 800.6442782856951 263.27608714291523, 819.3107609311652 239.16031719436853 M731.1832172106928 341.87920361826593 C754.2152838496783 314.8029967474107, 780.3726412317641 285.80652357327125, 819.9526811112098 239.9728782035964 M741.2934512988639 343.66819017607435 C769.6973771812196 307.89660898602426, 797.2359183721668 277.87429442682435, 819.5736412798094 251.7875426231545 M740.6914901684263 342.9058877687331 C766.6506743760867 312.01603515641585, 792.1217189420997 283.0818466457159, 820.7718244665759 251.27939110940838 M751.8579034211424 341.1210979136746 C767.2338178567186 321.99205604195254, 784.7072690061603 304.3045891182156, 821.5123080773304 263.28459668231636 M752.1759304921384 341.68120197582573 C772.4827076826018 319.28393843367456, 790.9056173150701 297.0554709979402, 820.1642373611444 263.4237623869272 M762.4805765992858 343.0833226412305 C776.6507791405 326.7366271247355, 790.0549388611716 313.1813073249919, 819.1529062209836 274.56356561695316 M762.9509627026133 342.6815944231201 C783.2519871756715 319.35273748388346, 802.8269794766937 295.65191624725713, 820.8495373688068 275.06950265928225 M771.6446355203058 343.12106245252846 C784.1772341457578 329.09569911151823, 798.3275823162625 315.80446515377787, 819.3025797250205 287.1088236240633 M773.7603814542424 342.87521766447173 C784.8759399989167 329.31106737454604, 796.0112755747924 316.5705181728587, 821.0959902235537 288.34446288244584 M783.0134815938363 343.2005046538374 C792.1592202215106 334.10416943876805, 801.7981194130987 324.6159920061557, 818.7351547350414 300.8657058338211 M783.3453706207866 342.0260346390006 C796.3583614858252 327.928190281878, 809.0460527232824 313.2547121081666, 819.2258538671542 300.42557367940566 M795.4974165827268 341.2335916501664 C802.0540813772128 334.44669415908135, 807.5368630743909 325.81434177191477, 820.7729513337736 313.31602173085105 M794.895344624789 341.72603517520145 C803.2811215193811 332.2908541906335, 810.3371673943277 322.93284054785636, 819.6261131215709 312.56488544083487 M804.7130543137482 340.9170833506525 C810.5453209030475 335.744034647623, 817.9125840761997 329.8062232592999, 821.3558648661218 324.27010229268103 M805.1162604180488 341.8089671480738 C807.3812299223797 339.21970421500134, 810.4816741752762 334.66402341972207, 820.8533009738578 324.4821480802769 M816.1601795671279 341.57281244532993 C817.2087246760025 340.6134764769328, 818.4157086700378 338.79491320890435, 819.7970766039728 337.1019375105922 M815.933708545676 341.9795347733773 C816.9601333117764 340.7347525934146, 818.2442681572364 339.5084744550766, 820.4628825547196 336.72996828656676" stroke="none" stroke-width="1" fill="none"></path><path d="M-0.6385497071535677 0.38713007889222034 C274.0159363493275 -0.270642015796085, 548.710286415839 0.33526548502808656, 819.671147487924 0.19143573721339383 M0.13439456489599566 -0.09751866744630101 C225.2581313143366 -0.0005568830904120886, 450.5283184264567 0.10357071699890096, 820.1584310087992 0.05514166478141214 M819.0299428796636 -0.32004035349587817 C818.6673969327286 108.21396815217592, 819.0011806810367 217.68829656873766, 819.2930319155006 342.65800232668556 M819.88318813918 0.3061610270888176 C820.4232793863829 131.7354951873772, 820.0503315412299 264.40008716795273, 819.8872722848766 341.75809406943927 M819.7496679501297 341.7834147541315 C524.6029610096809 342.85436221611445, 229.84802890238257 342.65506246228506, 0.19122402849210832 342.35166631906316 M819.9602370340937 341.89033748827785 C636.7973544763979 342.50021540927787, 453.2995085193346 342.4298312004639, -0.18194795287202484 341.86010587002534 M0.6934076448779943 342.5939204368336 C1.3643453083668615 270.5668004575226, 0.09231905812658547 198.2856606718278, 0.5993309918081594 -0.6384956883832499 M-0.4026204856909639 342.3950914478402 C-1.7856748345383031 260.2350455685185, -1.2777293124809077 178.40866721200757, -0.016173563514847687 -0.23033550373473305" stroke="#495057" stroke-width="2" fill="none"></path></g><g><path d="M-0.37585177223907695 47.99671410799644 C218.38630018375736 49.504988730425104, 437.6573661083339 48.845969270991205, 820.0836979852949 48.41482531242435 M-0.031420920497108804 47.77520613814584 C202.21605785497138 46.27234856505351, 404.0300537943357 46.3687405683061, 820.1423131013072 48.017089688489826" stroke="#495057" stroke-width="2" fill="none"></path></g><g><path d="M-0.022105018857955284 258.32427048256085 C302.19327417400484 258.57132464922927, 604.6437565714554 258.45599573004154, 820.0449810211595 257.88457305830246 M0.17159651995962721 258.14800608751847 C169.62031259543795 258.86565136717127, 339.0909973705292 258.875381856448, 819.9698129131108 258.1125521929469" stroke="#adb5bd" stroke-width="1.5" fill="none"></path></g><g><path d="M0.29868877653539655 89.84250781100263 C232.92355056422977 90.75049870264073, 465.41904568165666 90.6806851335322, 820.0803125383975 90.26537636501692 M-0.030300480923109815 90.0392189948707 C299.2995992695918 90.53772208671334, 598.7078568083841 90.48953109389873, 820.1002258687232 90.02261842067001" stroke="#dee2e6" stroke-width="0.5" fill="none"></path></g><g><path d="M0.2675842863714741 132.071573552961 C172.90936109665304 132.78357535550873, 346.2481990498701 132.80146132647218, 820.2752095377666 132.14884727371307 M0.08865523602690677 132.07531599608095 C226.04070828041645 131.33255357262564, 452.09351560721433 131.33200172803677, 820.1372269562818 132.05791336596545" stroke="#dee2e6" stroke-width="0.5" fill="none"></path></g><g><path d="M0.12231548653464261 173.8780975480692 C203.63381550183007 175.39427333176667, 406.42694184012015 175.3556770457296, 819.7339015689838 174.2101817002144 M-0.0695030179299393 173.90801829134492 C166.03648652694974 173.33103535240002, 331.8086775179937 173.25861776819622, 820.0254249069314 173.9595164881361" stroke="#dee2e6" stroke-width="0.5" fill="none"></path></g><g><path d="M0.3173656321555902 215.76999149291552 C195.94299279428202 216.19399257988923, 391.5234474257816 216.3299601617124, 820.1246181641299 216.07122943046798 M-0.030559702865736723 216.0399937095602 C323.9684381536675 215.49939836621883, 648.2677035704126 215.3926304323327, 819.8806423171894 215.8416825132071" stroke="#dee2e6" stroke-width="0.5" fill="none"></path></g><g><path d="M0.117874682050106 299.97304085575837 C165.85040208394142 300.3762990684574, 332.1254524734108 300.2895078738942, 819.9703963817195 300.264948411872 M0.09268767529971102 300.07880530919056 C239.02360759418252 300.04526601429677, 478.377872278031 299.8873458467033, 820.0010280670767 300.0485784786193" stroke="#dee2e6" stroke-width="0.5" fill="none"></path></g><g><path d="M259.98302874194235 0.224150591676547 C260.2261613304059 92.61709066718754, 261.4079931531222 183.66381960194212, 259.9256848359646 342.579135594226 M260.1557583112797 -0.26519716180328895 C259.1120829549237 91.81300711921733, 258.91286434594855 183.57362193124374, 260.3401595123231 342.3528818032818" stroke="#495057" stroke-width="1.5" fill="none"></path></g><g><path d="M400.138237228746 0.08523390814810605 C401.2239883042545 88.8600059497522, 401.0203284253145 177.93581552290135, 399.5574429047772 342.02358767748706 M400.1653351006162 -0.0025446476896728324 C400.54429262120954 85.86294927065602, 400.44765506688094 171.60281694296296, 399.81912610107025 341.83710365142616" stroke="#e9ecef" stroke-width="0.5" fill="none"></path></g><g><path d="M540.0836124681967 -0.37645326017740166 C540.2020119859045 136.59034103740927, 540.3053216848282 272.1173787569396, 539.5538181770535 341.93705493486186 M539.9349191095366 -0.15520610904477827 C540.355302286545 79.17036107266587, 540.4650483282421 158.18120309193625, 539.7659404331403 341.97069128157284" stroke="#e9ecef" stroke-width="0.5" fill="none"></path></g><g><path d="M680.2262005303896 0.3560623553428692 C679.9491909734659 101.92864865253438, 679.5741313805239 203.3465362441378, 679.756031626385 342.21495806364663 M680.2111141407432 -0.12504539835726008 C680.796893928324 106.98830694113803, 681.0001715329631 214.10909803511828, 680.0100636990512 341.94005921121413" stroke="#e9ecef" stroke-width="0.5" fill="none"></path></g><text x="130" y="24" text-anchor="middle" dominant-baseline="middle" font-size="16" font-weight="600" font-style="normal" fill="#495057">Property</text><text x="330" y="24" text-anchor="middle" dominant-baseline="middle" font-size="15" font-weight="600" font-style="normal" fill="#1864ab">Extraction</text><text x="470" y="24" text-anchor="middle" dominant-baseline="middle" font-size="15" font-weight="600" font-style="normal" fill="#2b8a3e">Self-Managing</text><text x="610" y="24" text-anchor="middle" dominant-baseline="middle" font-size="15" font-weight="600" font-style="normal" fill="#c92a2a">Graph-Temporal</text><text x="750" y="24" text-anchor="middle" dominant-baseline="middle" font-size="15" font-weight="600" font-style="normal" fill="#7048e8">Hybrid</text><text x="14" y="69" text-anchor="start" dominant-baseline="middle" font-size="15" font-weight="400" font-style="normal" fill="#212529">Factual recall</text><g><path d="M322.2127790129727 68.49824326284447 C323.5468354869095 70.09720995694713, 325.27132286128426 71.69200485526797, 328.18553102256794 73.74353140330552 M322.04705950935215 69.19237550879198 C323.5301771893439 70.47479200135827, 324.91901027743415 71.95978155158338, 327.7383762120317 74.11660567536399 M328.04953441632654 73.79160778528285 C331.48428153184625 70.63977554874191, 333.40930937533693 67.99229545035486, 337.3121768008611 64.80871322359118 M327.59009117919965 74.1648879601311 C330.6902160769829 71.4504085733901, 333.3592911065677 68.63629037835464, 338.00672448712334 63.832852257941575" stroke="#2b8a3e" stroke-width="3" fill="none"></path></g><g><path d="M470.10640358908535 61.47363931884634 L477.11726021171273 69.82337274800314 L470.4973592020092 76.1779247793497 L464.40515048557717 68.71336094779727" stroke="none" stroke-width="0" fill="#ffd43b" fill-rule="evenodd"></path><path d="M470.0470177340378 62.49859039716603 C471.88899440488234 64.99009161386367, 474.9622042903717 67.31340354119197, 476.95352673578367 68.66962593542492 M470.2002080283686 62.37084302144668 C472.5648873681131 64.84268055902264, 475.3593017111504 67.19309690632778, 476.7263356774119 69.01702160893188 M476.6320165759793 69.07436547389722 C475.3900896973432 70.23749352528736, 472.9963351675766 72.38952553212056, 469.61200260645126 76.23712468506211 M476.8426150718245 68.79616061410823 C475.2136943103117 70.51422559565323, 473.40665754705117 72.58568406247203, 469.8746158879001 75.89708140950665 M469.5883888444854 75.90050620882748 C467.43950615130706 72.63702007905538, 464.1210739162538 70.0934148886114, 463.2845453540856 68.98044616841587 M469.7639285324121 75.62302597492926 C467.8510846449106 73.73584330035371, 465.5266146017005 70.98153356531813, 463.3658448454364 69.22239426782807 M462.8440681199531 69.21480238846185 C465.0251008032978 66.9235095664616, 467.70492049949667 64.72219993524037, 469.4425270709297 62.58933311974297 M463.5274731199642 68.79682826008276 C464.97574670085254 67.1137103873471, 467.23360545920843 65.21489214198768, 469.84501419938965 62.149787054729764" stroke="#e67700" stroke-width="1.5" fill="none"></path></g><g><path d="M610.4418291730979 62.80151510281787 L615.9536890642478 69.88782429983291 L610.3410395994057 76.74766629138877 L604.0166274241196 68.38667567674794" stroke="none" stroke-width="0" fill="#ffd43b" fill-rule="evenodd"></path><path d="M609.6444611389602 62.19618310981868 C612.7904769653387 65.13399553191788, 614.85861651731 66.87350154740363, 616.7908922088836 69.30422826298388 M610.0877139337679 62.38103750251694 C611.97826138111 64.5799364139073, 614.7158722921184 67.01937273691138, 616.7319047325472 69.00278028604245 M617.1280812978985 68.58461354001287 C613.9370867108803 71.90596807666391, 611.6232024684149 74.31635152708914, 609.699645113906 75.5362548603441 M616.5220148510147 68.76214378395365 C615.400670495219 70.52969220019882, 613.5434536776938 72.16824770328462, 609.9955805417479 75.55187431812793 M609.4879308383029 76.19707573169833 C607.1846495651756 73.13236776320497, 604.9060419184601 70.79010667435999, 603.7452546750764 69.43412278097634 M610.1317191759775 75.62857510961429 C607.5635531078422 73.2877047979245, 605.7071062944549 71.23608074450256, 603.4178882654461 68.9498239225903 M602.9214342289661 69.38216793885205 C605.1269243294363 67.76691784460222, 606.1942249775257 65.3992908627511, 609.8698796952972 61.71705762152908 M603.5342718391875 68.90216931164166 C604.6968728846075 67.41042397582898, 606.3382776545001 66.23101239930153, 609.8503488176332 62.52773267487819" stroke="#e67700" stroke-width="1.5" fill="none"></path></g><g><path d="M741.7487354685884 69.19582629950978 C743.944453368128 71.38855407177348, 746.6596758038379 73.39588456522245, 748.0315873342873 74.0499764980647 M741.8483526002772 69.13657570492332 C744.0289603929637 70.75951987562895, 745.5798363085814 72.06091329905495, 748.2585010582878 73.98261945477685 M747.8770251349794 75.05753988401032 C750.5580090513272 71.31692313347698, 754.8047281628262 67.98765091717505, 758.2799873128213 63.789418212354484 M747.5795792156296 74.00166486999734 C751.0722194052328 70.6261461758752, 754.3148936147095 67.4964737196288, 757.5273603353317 64.56149370510515" stroke="#2b8a3e" stroke-width="3" fill="none"></path></g><text x="14" y="111" text-anchor="start" dominant-baseline="middle" font-size="15" font-weight="400" font-style="normal" fill="#212529">Behavioral continuity</text><g><path d="M325.29426604146136 106.00357706450612 C327.81435650927085 108.80363115757757, 330.56205026253815 110.00037707571927, 335.9857649562556 115.24033445005692 M324.8187041120477 105.35676141093288 C327.0253485879279 108.747566236867, 329.6603472642601 111.31262552997434, 335.59188738014683 116.43773383859875" stroke="#e03131" stroke-width="2.5" fill="none"></path></g><g><path d="M334.76290143969317 106.52890758043203 C332.70076519310356 108.91590499658686, 329.91845249372534 111.98351118347239, 324.4970525963113 115.42018336744647 M335.13097661875906 105.70415981738786 C332.1854763550488 109.4132860126533, 328.8070016080335 112.2911480474309, 324.8795878851484 115.84484545562967" stroke="#e03131" stroke-width="2.5" fill="none"></path></g><g><path d="M461.8884617553943 111.0117948786161 C463.42713883987585 113.0801503852484, 465.63774617535813 113.78959165162586, 467.8408494594372 116.2270786030559 M461.8779135152358 110.98519047303664 C464.1513985811311 112.94298232957075, 466.26745052745355 114.59192721442633, 467.9362695092851 116.15555349809142 M468.25504726649507 115.77828792951377 C470.57945266889504 113.58928927716227, 475.5456772375049 109.58663517353848, 478.3700463972887 106.47149470789245 M467.85232226721195 116.06891895764517 C471.1559034956099 112.34348352554348, 475.2505284223985 109.5658837040395, 478.3442690018012 106.4918114249466" stroke="#2b8a3e" stroke-width="3" fill="none"></path></g><g><path d="M610.7692323387384 105.44518737473727 L616.8372883748355 110.17996534967384 L610.635079835232 118.73270261485219 L602.3025072090928 110.78924496471393" stroke="none" stroke-width="0" fill="#ffd43b" fill-rule="evenodd"></path><path d="M609.4777587756768 103.71924067893171 C612.3055591990793 106.04599396411977, 613.9435772475857 107.59582440280424, 616.185687541993 111.0980328782555 M610.0507018837969 104.14318420395503 C611.6635549739897 106.19051376484076, 613.4054270718921 107.64814404056149, 616.5626945925632 111.21198432725721 M616.7745132018232 110.99188577532243 C614.7417908644578 113.48479166834824, 612.0928328645164 115.8827086593949, 609.8000038367364 117.43231134020756 M616.5554107588005 110.8149102772839 C614.4844778497555 113.42694923232008, 612.4701684142477 115.42123427792261, 609.995938530362 117.53678762329919 M610.2779916060181 117.64508380670351 C607.85912519702 115.48690497148867, 605.1468213019341 112.33487248264673, 603.0175773761017 111.48115157451382 M610.0737565141529 117.64287366117279 C608.68630426389 116.39737475062925, 606.6963038046688 114.37141312892109, 603.4086276811249 111.2846683150506 M602.7712784881661 110.78280232083006 C605.306301961239 109.48933632915349, 607.3814795283583 107.03533263703926, 610.4677148917301 103.97436549545604 M603.4119598197857 110.79285295642319 C605.5124751227505 108.30003224779321, 608.0843695848004 105.95313085651618, 610.1893040141981 104.43076719957027" stroke="#e67700" stroke-width="1.5" fill="none"></path></g><g><path d="M741.8814471711884 111.00173981862895 C743.8609754639339 112.31793396004241, 744.9081318146136 113.0471120950308, 748.0051633543387 115.9066313475176 M742.1104021858979 111.24055810251271 C743.452003395347 112.04739728382248, 745.1242402289155 113.41016912766783, 747.909989638654 116.32488804117479 M747.1288131579375 115.61797588778326 C751.1739983198332 114.59214657699326, 752.7307699186349 111.96429794068874, 758.4538472600906 105.9097812696949 M748.3312068245968 116.07129624202565 C752.2630319633139 112.15327518135776, 756.0285453350308 108.4434049636795, 758.1390536879285 106.66260841504517" stroke="#2b8a3e" stroke-width="3" fill="none"></path></g><text x="14" y="153" text-anchor="start" dominant-baseline="middle" font-size="15" font-weight="400" font-style="normal" fill="#212529">Causal reasoning</text><g><path d="M324.69164876127167 147.04102645754048 C327.7366334652629 152.65042855046838, 332.8196834845397 155.60223661472563, 335.8230203362017 158.20710188006487 M324.37735704578705 147.33618068402822 C327.865282071612 151.3707654683123, 331.51941936620665 154.86830283192867, 334.9100516852051 158.2738718028736" stroke="#e03131" stroke-width="2.5" fill="none"></path></g><g><path d="M334.87507410937746 147.5770697292684 C330.6651032454474 152.13479547311897, 326.7261017002542 155.3418170892259, 324.69057975869777 157.6169603283498 M334.8704302822673 148.16752949344047 C331.4409577515258 151.7337789603274, 328.80062753063396 155.11667954912417, 325.16972220825585 158.0472171588464" stroke="#e03131" stroke-width="2.5" fill="none"></path></g><g><path d="M470.3003037331117 145.85874602091206 L475.91999115208506 151.91772274033386 L469.96293529343205 160.50697747388153 L463.29741908574607 154.05627701864603" stroke="none" stroke-width="0" fill="#ffd43b" fill-rule="evenodd"></path><path d="M469.83024831721093 146.1735827042133 C471.0870601851941 147.49631606124257, 473.5315183376594 149.91645389921098, 477.1360286718055 153.06717225320432 M469.9733747160472 146.01298254537494 C471.8107948142644 148.54633621827548, 474.2574270277042 150.2534076109584, 476.67284872882715 153.24287975530214 M476.8660333416409 153.2693680830173 C473.52602932125814 155.16249754694638, 470.85774870491707 157.88160179408635, 469.55576081895816 159.71348621206113 M476.6558584947279 152.81478417196791 C475.1487238601491 154.70243459303256, 473.7641258271246 156.05438330854136, 469.8168835098577 159.6253710494544 M470.04769714547234 159.20994098423876 C467.86124200570816 157.92768178047356, 466.58191998303084 156.3547333699369, 463.57150732809913 152.86515285777867 M469.989993195191 159.50884696149197 C468.5180182892912 158.4196849483186, 466.83115371455824 156.37485283781422, 463.28233008281313 152.7505753647882 M463.60390937959 153.05700926930015 C464.88607171366687 150.74945096921311, 466.6865728175456 150.10067767355375, 469.62667286919776 146.71685176088076 M463.1118496141264 152.75644311519065 C465.6528851212492 150.69245228020245, 468.16127057826924 147.88765423963662, 470.241965050814 146.52247395208366" stroke="#e67700" stroke-width="1.5" fill="none"></path></g><g><path d="M601.5658478065908 153.54443144125145 C604.4381043056965 154.88454905867607, 606.0996012226032 157.23607092116404, 607.7938229676589 158.22992641324643 M601.9921050471775 152.90272184604112 C603.8193776394494 155.06593783518792, 606.3413617750315 156.79483506207015, 608.0111404793271 158.38955554796803 M608.1318043514564 157.72979956773187 C610.2797468948206 155.51802481695134, 612.5034076107063 152.21725310655543, 617.655826407097 147.87688577867814 M608.3591165299979 158.5183578759388 C610.4008908760596 155.72140203404564, 613.4810539244681 153.58526337677813, 617.7672686710572 148.26845949911504" stroke="#2b8a3e" stroke-width="3" fill="none"></path></g><g><path d="M741.5806255822536 153.08637633472085 C743.5172650175444 153.76903179513968, 744.6847180610389 155.36908205994192, 747.8302611594482 158.60513540933738 M741.8618125788798 152.88531064405979 C743.3942930413604 154.1732861660871, 744.5868257009719 155.55183287926323, 747.9982936177364 158.34880020034032 M747.4088419947406 159.1449238674472 C751.5215121975461 155.22018113761482, 754.2051866869431 151.46043143762145, 758.7301641799063 149.18723277788467 M748.0106570387223 158.33127920313433 C750.3704418685157 155.45805233539224, 753.7271038214634 152.52649608707645, 757.852596025297 148.61378180485485" stroke="#2b8a3e" stroke-width="3" fill="none"></path></g><text x="14" y="195" text-anchor="start" dominant-baseline="middle" font-size="15" font-weight="400" font-style="normal" fill="#212529">Temporal grounding</text><g><path d="M323.94518670608284 190.57158502644776 C329.4944830808994 192.90774318240236, 332.1538122792695 197.26096115605648, 334.3626723984986 199.28893266231958 M324.48630967364915 189.23065390986255 C328.2391042714061 193.9074884432077, 332.6167630304396 197.2293453089796, 335.72986046738765 199.9483756831115" stroke="#e03131" stroke-width="2.5" fill="none"></path></g><g><path d="M334.97166980925397 190.0188068729098 C331.59352798058376 193.74062587866487, 327.69704281908105 197.42964701046293, 325.24563285617154 199.9758718603308 M334.93549750318806 190.02549551380568 C332.3333515415579 191.75236178879027, 329.86750128006935 194.56131276770003, 324.99161156455 200.20380998768644" stroke="#e03131" stroke-width="2.5" fill="none"></path></g><g><path d="M465.44429433127334 190.70021363537822 C467.83839478731403 194.5537336665488, 472.9807245621724 198.72623564225697, 475.61405850253874 200.00818045639818 M465.04674800395003 190.1109724673684 C466.8221182531021 191.50114224890598, 468.9353877524651 193.60455244239452, 475.1056669448323 200.05294198401015" stroke="#e03131" stroke-width="2.5" fill="none"></path></g><g><path d="M474.4370546561893 190.54159404513737 C470.56609289237826 193.03118888790874, 467.17961673518374 198.14529266716272, 464.60669132227974 200.4862678765062 M475.24362160168516 190.0512523268109 C473.1538765886115 191.94256310942217, 470.448535042273 195.09325736566177, 464.6738251455714 200.63949673258034" stroke="#e03131" stroke-width="2.5" fill="none"></path></g><g><path d="M601.7993745747417 195.22773676985423 C602.9993794069491 196.19272843271662, 604.4225484284243 197.55737893701576, 607.6232887157853 200.1240902156709 M602.0993240092322 194.8271161322473 C603.5144950336767 195.93369122070095, 604.7875890571343 197.28521790215126, 608.0985984866475 200.3063370036621 M607.5488180264192 200.92545711267485 C611.4942203917805 196.697070635043, 616.2084347962825 193.66259345856142, 618.3656377921277 189.42960754978608 M608.3970677366941 200.3322201841699 C610.0089828381621 197.99995794977846, 612.5559213455297 195.271721936325, 618.3417098276155 190.39215893308887" stroke="#2b8a3e" stroke-width="3" fill="none"></path></g><g><path d="M750.344756177899 188.1817611403345 L756.3759850110378 195.76039234766898 L751.1495505776963 201.49302467678342 L742.1250853146176 195.06752591190622" stroke="none" stroke-width="0" fill="#ffd43b" fill-rule="evenodd"></path><path d="M750.5029358278503 187.92861488973642 C752.2401594504022 190.85423706855894, 754.4282592381908 192.89257155668474, 756.2264783736772 194.57560743956202 M750.0428417176487 188.33591665995885 C752.3149264416277 190.66832740609487, 754.4000167447323 192.86505330324013, 756.7229893854197 194.90665055516092 M756.3149731877835 195.49827418036415 C754.6492247873339 196.56547230695247, 753.6348215280765 198.5564713279093, 750.0868415723052 201.81469358372928 M756.7166665539727 195.27093517065285 C753.986832061685 197.24539284200446, 751.6049077257798 200.1089718000361, 749.8738685462669 201.97752461265816 M749.8053351595918 201.7694482283433 C747.0068953550199 199.57463566813246, 745.1228122010988 196.61210861441768, 742.8665447121074 194.90703821723437 M749.7545229080864 201.93639347176205 C748.3269680674715 200.03849012798332, 746.4282370674573 197.93671271574675, 743.5168394087601 194.72379660601842 M743.5099677207065 194.50766278274273 C745.0025325043515 193.1555242862765, 746.0179423742265 192.3589436672628, 750.3411348423335 188.65025307220574 M743.1958869111327 195.2771364783015 C745.2860903734853 192.7367725157173, 747.587683374333 190.789429697693, 749.8958825294767 188.52017093943516" stroke="#e67700" stroke-width="1.5" fill="none"></path></g><text x="14" y="237" text-anchor="start" dominant-baseline="middle" font-size="15" font-weight="400" font-style="normal" fill="#212529">Transparency / auditability</text><g><path d="M321.92233008729 237.27933797140918 C323.5941509943845 239.3223650872245, 325.69800152084935 240.85704173750855, 328.5133951223824 242.15127776703508 M322.04549141591093 236.95133774098437 C323.214741179973 238.10347649784038, 324.5155257373231 239.08412718562454, 328.21263522951443 242.25442123979462 M328.13982432735605 241.95587644876156 C329.5788560589219 240.15715918058888, 332.6565401508319 237.04803049524003, 338.8649081567415 232.0084636845543 M328.38331162077986 242.66172344209778 C330.60664768271454 238.76737905328164, 334.2205544678586 236.35545082211257, 337.54560889525715 231.98155069977562" stroke="#2b8a3e" stroke-width="3" fill="none"></path></g><g><path d="M464.6082167631715 230.75906695997728 C469.5794016678641 236.0168859620666, 472.7262749185933 240.4032727963634, 474.6527909995802 243.2877446342412 M465.0539023470621 231.99173905665538 C468.1510744272659 235.2498552429889, 471.8552971229155 239.4193651888887, 475.48014853735225 242.42717884314743" stroke="#e03131" stroke-width="2.5" fill="none"></path></g><g><path d="M474.80426049364615 232.49592050802508 C471.6353762850446 233.75227302642065, 470.0764952035277 237.97659547591527, 465.1994507327706 241.79898992501688 M474.9141893171447 231.52534488620356 C471.9212792092001 234.84406791922606, 468.8406829675543 238.5895084079047, 464.49554373750766 242.52970807165354" stroke="#e03131" stroke-width="2.5" fill="none"></path></g><g><path d="M602.077839308778 237.05906632252032 C603.2493993158411 238.7397683598136, 604.8289778018845 240.02241990289193, 608.3995725860251 242.4412479310376 M602.227848659949 236.80463286421846 C604.4597011113244 238.83896981559164, 606.7265615161347 241.2136831775227, 607.8886816570307 242.051509212419 M607.6171916965695 242.81283969677312 C611.2295575825539 239.82987616100309, 613.6082274729322 235.84517099707864, 618.7855618227319 231.58430327466775 M608.0741285268812 241.9088487637413 C612.2490616651887 238.54759302276122, 615.3779843911021 234.99888868829856, 617.6387298447719 232.26390649391698" stroke="#2b8a3e" stroke-width="3" fill="none"></path></g><g><path d="M750.663828102002 230.39966927288748 L756.6519978728888 236.83509192252134 L749.2115366021693 244.1686624610272 L743.5443240184803 235.92684806437944" stroke="none" stroke-width="0" fill="#ffd43b" fill-rule="evenodd"></path><path d="M749.6680288204764 230.2326672569848 C752.0259318560039 232.27217227630092, 753.9159870840093 234.13798745060853, 756.697492669324 237.3919108361207 M750.248966411187 230.17877434544835 C751.9431008610558 231.88307386597538, 753.904096746189 233.96198201477273, 756.5615685688822 237.24007443027264 M757.1186857458265 236.9751331494549 C754.9420641075203 239.39029783245942, 752.9774557101493 240.87552045049597, 750.0522733453098 243.4514120113711 M756.5469952564996 236.9594975563762 C754.6299100008645 238.99989550878632, 752.5202764181378 240.86182752395567, 750.1693112795778 243.99077248468555 M749.97152925461 243.98873680906928 C746.9402308247961 241.6128578035038, 744.8113512994745 238.57510212837855, 743.04741888291 237.55732311281776 M750.1802651269134 243.60015362873486 C747.9291418211774 241.31105547599944, 745.9229538787284 239.39430291574618, 743.166346179556 237.26139426354226 M743.6399578339261 236.63527734913316 C745.1037569340016 236.13908830099493, 745.6869447268722 234.74913325082954, 749.7554363341221 230.63491031694767 M743.0922759129595 237.1103659707263 C744.980926338265 235.35525673343417, 746.8632341365256 233.42892431854585, 750.0065088307274 230.17055798803042" stroke="#e67700" stroke-width="1.5" fill="none"></path></g><text x="14" y="279" text-anchor="start" dominant-baseline="middle" font-size="15" font-weight="400" font-style="normal" fill="#212529">Setup complexity</text><text x="330" y="279" text-anchor="middle" dominant-baseline="middle" font-size="14" font-weight="500" font-style="normal" fill="#2b8a3e">Low</text><text x="470" y="279" text-anchor="middle" dominant-baseline="middle" font-size="14" font-weight="500" font-style="normal" fill="#e67700">Medium</text><text x="610" y="279" text-anchor="middle" dominant-baseline="middle" font-size="14" font-weight="500" font-style="normal" fill="#c92a2a">High</text><text x="750" y="279" text-anchor="middle" dominant-baseline="middle" font-size="14" font-weight="500" font-style="normal" fill="#c92a2a">High</text><text x="14" y="321" text-anchor="start" dominant-baseline="middle" font-size="15" font-weight="400" font-style="normal" fill="#212529">Representative system</text><text x="330" y="321" text-anchor="middle" dominant-baseline="middle" font-size="14" font-weight="500" font-style="italic" fill="#495057">Mem0</text><text x="470" y="321" text-anchor="middle" dominant-baseline="middle" font-size="14" font-weight="500" font-style="italic" fill="#495057">Letta</text><text x="610" y="321" text-anchor="middle" dominant-baseline="middle" font-size="14" font-weight="500" font-style="italic" fill="#495057">Graphiti</text><text x="750" y="321" text-anchor="middle" dominant-baseline="middle" font-size="14" font-weight="500" font-style="italic" fill="#495057">MAGMA</text><g><path d="M16.11352397654073 373.4924541226048 C17.888961416970325 375.79707728056917, 20.058097629290696 377.97858798550715, 22.12656240583993 379.741856700768 M15.904009750677606 373.9134552971408 C17.24961352926128 375.1370790381913, 18.956731534877285 376.29523873223314, 22.25742066706998 379.16383644701443 M21.493101884894585 379.9392666190831 C24.937963596543362 377.00712586835164, 26.788129188958056 372.92920009787565, 31.043548032573327 369.7535574707493 M22.16575494142508 378.765115360659 C24.27534841509876 376.7552928131066, 26.885053885051732 374.5048856334531, 31.766530850992087 368.81381618804284" stroke="#2b8a3e" stroke-width="3" fill="none"></path></g><text x="42" y="374" text-anchor="start" dominant-baseline="middle" font-size="15" font-weight="400" font-style="normal" fill="#495057">Supported</text><g><path d="M162.98015239828683 366.30017584501064 L169.76445835999164 373.05075520557716 L163.948063999837 381.7662167085699 L158.21533726522347 374.7543479986229" stroke="none" stroke-width="0" fill="#ffd43b" fill-rule="evenodd"></path><path d="M163.6974723580202 366.9172099571346 C165.6208114258081 369.1923555386079, 166.98475073228596 370.2129721356633, 170.79906831874544 373.80428558361484 M163.77247356027777 367.1259164204969 C165.86638189568043 369.1090812071092, 168.22870512738416 371.05350325686146, 170.6101522183791 373.9163340249483 M170.1706761948715 373.7059465256839 C169.76357583804307 375.5678700310059, 168.31382908012696 376.21348338993465, 164.47378486137913 381.02482923273936 M170.72007287390372 373.90822180245186 C168.4059109242033 376.3280250459443, 165.94184772809882 378.7621981538194, 164.1517840167989 380.73967800585274 M164.20644692345562 380.51204564638874 C160.73015395674562 377.92246472645036, 158.59416789119373 374.8340790371158, 157.67899102880722 374.3641273764784 M164.02419312185944 380.85955401444454 C162.1564976176569 378.9527082931219, 160.326729140596 376.6137924656678, 157.00795873894313 374.0970175464322 M157.0274327342931 374.42477615340874 C159.20485400294638 372.7344422130997, 159.57277206673427 371.51898592853104, 164.11950709645632 367.67304858012886 M157.22059563379008 374.26210594072 C159.58727025661383 371.3199563422153, 162.56573249781735 368.8316024907567, 164.26948285454992 367.4379538910338" stroke="#e67700" stroke-width="1.5" fill="none"></path></g><text x="182" y="374" text-anchor="start" dominant-baseline="middle" font-size="15" font-weight="400" font-style="normal" fill="#495057">Partial</text><g><path d="M298.5474680247987 368.1316222352961 C301.8350935396717 371.8829765719664, 304.04214616674915 372.7822512155356, 308.7848730299432 379.2044291065215 M298.9784734692671 368.9108187346341 C302.3883897487307 372.1138059026725, 305.627348711437 375.7150372524833, 309.71492307852947 379.36743086468374" stroke="#e03131" stroke-width="2.5" fill="none"></path></g><g><path d="M310.3092228077747 368.24982413770994 C305.93389640865666 372.60186796977735, 302.75267864250446 374.93178421697365, 297.74218381037105 379.30773174881097 M309.21551390940846 369.1188406779402 C305.76993664356314 372.4095394424696, 302.5417814121476 374.890361628345, 298.5326337798679 379.78995964421216" stroke="#e03131" stroke-width="2.5" fill="none"></path></g><text x="322" y="374" text-anchor="start" dominant-baseline="middle" font-size="15" font-weight="400" font-style="normal" fill="#495057">Absent</text></svg>